<svg width="36" height="38" viewBox="0 0 36 38" fill="none" xmlns="http://www.w3.org/2000/svg">
<g id="&#229;&#138;&#159;&#232;&#131;&#189;&#230;&#184;&#133;&#229;&#150;&#174;/&#240;&#159;&#166;&#134; icon &#34;robot&#34;">
<path id="Vector" d="M18.0078 25.5938V29.5938M18.0078 11.5938V7.59375M18.0078 7.59375C19.6654 7.59375 21.0092 6.25061 21.0092 4.59375C21.0092 2.93689 19.6654 1.59375 18.0078 1.59375C16.3502 1.59375 15.0063 2.93689 15.0063 4.59375C15.0063 6.25061 16.3502 7.59375 18.0078 7.59375ZM34.0156 35.5938V33.5938C34.0156 31.3846 32.2239 29.5938 30.0136 29.5938H6.00194C3.79173 29.5938 2 31.3846 2 33.5938V35.5938H34.0156ZM16.0068 18.5938C16.0068 19.6983 15.111 20.5938 14.0058 20.5938C12.9007 20.5938 12.0049 19.6983 12.0049 18.5938C12.0049 17.4892 12.9007 16.5938 14.0058 16.5938C15.111 16.5938 16.0068 17.4892 16.0068 18.5938ZM24.0107 18.5938C24.0107 19.6983 23.1149 20.5938 22.0097 20.5938C20.9046 20.5938 20.0087 19.6983 20.0087 18.5938C20.0087 17.4892 20.9046 16.5938 22.0097 16.5938C23.1149 16.5938 24.0107 17.4892 24.0107 18.5938ZM10.0039 25.5938H26.0117C28.2219 25.5938 30.0136 23.8029 30.0136 21.5938V15.5938C30.0136 13.3846 28.2219 11.5938 26.0117 11.5938H10.0039C7.79367 11.5938 6.00194 13.3846 6.00194 15.5938V21.5938C6.00194 23.8029 7.79367 25.5938 10.0039 25.5938Z" stroke="#C5C5C5" stroke-width="3"/>
</g>
</svg>
