<svg width="25" height="20" viewBox="0 0 25 20" fill="none" xmlns="http://www.w3.org/2000/svg">
<path fill-rule="evenodd" clip-rule="evenodd" d="M12.5 0C21.25 0 25 10 25 10C25 10 21.25 20 12.5 20C3.75 20 0 10 0 10C0 10 3.75 0 12.5 0ZM12.5 5.625C10.0838 5.625 8.125 7.58378 8.125 10C8.125 12.4162 10.0838 14.375 12.5 14.375C14.9162 14.375 16.875 12.4162 16.875 10C16.875 7.58378 14.9162 5.625 12.5 5.625ZM12.5 11.875C11.4661 11.875 10.625 11.0339 10.625 10C10.625 8.96614 11.4661 8.125 12.5 8.125C13.5339 8.125 14.375 8.96614 14.375 10C14.375 11.0339 13.5339 11.875 12.5 11.875Z" fill="#A7BA89"/>
</svg>
