<svg width="30" height="30" viewBox="0 0 30 30" fill="none" xmlns="http://www.w3.org/2000/svg">
<path fill-rule="evenodd" clip-rule="evenodd" d="M6.14508 15C6.14508 14.0257 6.3069 13.0916 6.59572 12.2154L1.54037 8.35498C0.555106 10.3554 0 12.6095 0 15C0 17.3884 0.554423 19.6411 1.53832 21.6402L6.59094 17.7723C6.30485 16.9002 6.14508 15.9695 6.14508 15Z" fill="#FBBC05"/>
<path fill-rule="evenodd" clip-rule="evenodd" d="M15.0215 6.13636C17.1381 6.13636 19.0499 6.88636 20.552 8.11364L24.9219 3.75C22.259 1.43182 18.8451 0 15.0215 0C9.08532 0 3.98354 3.39477 1.54053 8.355L6.59588 12.2155C7.76071 8.67955 11.0811 6.13636 15.0215 6.13636Z" fill="#EB4335"/>
<path fill-rule="evenodd" clip-rule="evenodd" d="M15.0215 23.8638C11.0811 23.8638 7.76071 21.3206 6.59588 17.7847L1.54053 21.6444C3.98354 26.6054 9.08532 30.0001 15.0215 30.0001C18.6853 30.0001 22.1832 28.6992 24.8085 26.2617L20.0099 22.5519C18.6559 23.4049 16.951 23.8638 15.0215 23.8638Z" fill="#34A853"/>
<path fill-rule="evenodd" clip-rule="evenodd" d="M29.36 15.0002C29.36 14.1139 29.2234 13.1593 29.0186 12.2729H15.0215V18.0684H23.0784C22.6755 20.0443 21.579 21.5634 20.0099 22.552L24.8085 26.2618C27.5663 23.7023 29.36 19.8895 29.36 15.0002Z" fill="#4285F4"/>
</svg>
