<svg width="41" height="39" viewBox="0 0 41 39" fill="none" xmlns="http://www.w3.org/2000/svg">
<rect width="40.5647" height="39" rx="15" fill="#3ACE01"/>
<path fill-rule="evenodd" clip-rule="evenodd" d="M20.2823 8.06981C27.0272 8.06981 32.4949 12.4482 32.4949 17.8491C32.4949 19.7356 31.8273 21.497 30.6717 22.9909C30.6145 23.0759 30.5398 23.1699 30.4456 23.2737L30.4384 23.2814C30.0437 23.7538 29.5991 24.1972 29.1103 24.6065C25.7331 27.7281 20.1742 31.4446 19.4405 30.8712C18.8027 30.3728 20.491 27.935 18.5432 27.5293C18.4073 27.5137 18.2718 27.4969 18.1374 27.4779L18.1349 27.4777V27.4776C12.4141 26.6648 8.06981 22.6633 8.06981 17.8491C8.06964 12.4482 13.5375 8.06981 20.2823 8.06981Z" fill="white"/>
</svg>
