<svg width="28" height="28" viewBox="0 0 28 28" fill="none" xmlns="http://www.w3.org/2000/svg">
<path fill-rule="evenodd" clip-rule="evenodd" d="M11.1919 11.0832H24.4999V14.5832H20.9999V19.8332H18.0833V14.5832H11.1919C11.1919 14.5832 9.91658 17.4998 6.99992 17.4998C4.08325 17.4998 2.33325 15.4105 2.33325 12.8332C2.33325 10.2558 4.08325 8.1665 6.99992 8.1665C9.91658 8.1665 11.1919 11.0832 11.1919 11.0832ZM3.49992 12.8332C3.49992 14.7662 5.06693 16.3332 6.99992 16.3332C8.93291 16.3332 10.4999 14.7662 10.4999 12.8332C10.4999 10.9002 8.93291 9.33317 6.99992 9.33317C5.06693 9.33317 3.49992 10.9002 3.49992 12.8332Z" fill="#A7BA89"/>
<path d="M24.5001 11.0833V9.91667C25.1444 9.91667 25.6667 10.439 25.6667 11.0833H24.5001ZM11.192 11.0833V12.25C10.7284 12.25 10.3088 11.9755 10.1231 11.5507L11.192 11.0833ZM24.5001 14.5833H25.6667C25.6667 14.8927 25.5438 15.1895 25.325 15.4083C25.1063 15.627 24.8095 15.75 24.5001 15.75V14.5833ZM21.0001 14.5833H19.8334C19.8334 14.2739 19.9564 13.9771 20.1751 13.7584C20.3939 13.5396 20.6907 13.4167 21.0001 13.4167V14.5833ZM21.0001 19.8333H22.1667C22.1667 20.4777 21.6444 21 21.0001 21V19.8333ZM18.0834 19.8333V21C17.4391 21 16.9167 20.4777 16.9167 19.8333H18.0834ZM18.0834 14.5833V13.4167C18.7278 13.4167 19.2501 13.939 19.2501 14.5833H18.0834ZM11.192 14.5833L10.1231 14.116C10.3088 13.6912 10.7284 13.4167 11.192 13.4167V14.5833ZM24.5001 12.25H11.192V9.91667H24.5001V12.25ZM23.3334 14.5833V11.0833H25.6667V14.5833H23.3334ZM21.0001 13.4167H24.5001V15.75H21.0001V13.4167ZM19.8334 19.8333V14.5833H22.1667V19.8333H19.8334ZM18.0834 18.6667H21.0001V21H18.0834V18.6667ZM19.2501 14.5833V19.8333H16.9167V14.5833H19.2501ZM11.192 13.4167H18.0834V15.75H11.192V13.4167ZM7.00008 16.3333C8.03026 16.3333 8.79125 15.8278 9.33856 15.2439C9.61151 14.9526 9.81454 14.6578 9.94849 14.436C10.0148 14.3261 10.0624 14.2372 10.0917 14.1797C10.1062 14.1511 10.1161 14.1304 10.1213 14.1193C10.124 14.1137 10.1254 14.1106 10.1257 14.11C10.1258 14.1097 10.1261 14.1091 10.1257 14.11C10.1255 14.1105 10.1247 14.1121 10.1244 14.1129C10.1242 14.1134 10.124 14.1139 10.1238 14.1143C10.1237 14.1146 10.1238 14.1142 10.1238 14.1143C10.1236 14.1147 10.1231 14.116 11.192 14.5833C12.2609 15.0507 12.2608 15.0512 12.2606 15.0516C12.2605 15.0517 12.2608 15.0513 12.2606 15.0516C12.2603 15.0523 12.2595 15.054 12.2592 15.0548C12.2585 15.0563 12.2578 15.058 12.2568 15.0599C12.2552 15.0638 12.2532 15.0682 12.2508 15.0735C12.2461 15.0838 12.24 15.097 12.2326 15.1129C12.2178 15.1444 12.1973 15.1865 12.1714 15.2376C12.1195 15.3396 12.0446 15.4785 11.9458 15.6422C11.7496 15.9672 11.4515 16.4016 11.041 16.8394C10.2215 17.7138 8.88657 18.6667 7.00008 18.6667V16.3333ZM3.50008 12.8333C3.50008 13.8584 3.84595 14.7265 4.41892 15.3298C4.9831 15.9237 5.83504 16.3333 7.00008 16.3333V18.6667C5.24846 18.6667 3.76706 18.0316 2.72707 16.9366C1.69588 15.8509 1.16675 14.3856 1.16675 12.8333H3.50008ZM7.00008 9.33333C5.83504 9.33333 4.9831 9.74293 4.41892 10.3369C3.84595 10.9402 3.50008 11.8083 3.50008 12.8333H1.16675C1.16675 11.2811 1.69588 9.81579 2.72707 8.73006C3.76706 7.63508 5.24846 7 7.00008 7V9.33333ZM11.192 11.0833C10.1231 11.5507 10.1229 11.5503 10.1231 11.5507C10.1231 11.5508 10.1237 11.5521 10.1238 11.5523C10.124 11.5528 10.1242 11.5533 10.1244 11.5537C10.1247 11.5545 10.125 11.5552 10.1253 11.5557C10.1254 11.556 10.1257 11.5567 10.1253 11.5557C10.125 11.5551 10.124 11.5529 10.1214 11.5473C10.1161 11.5362 10.1062 11.5156 10.0917 11.487C10.0624 11.4295 10.0148 11.3405 9.94849 11.2307C9.81454 11.0089 9.61151 10.714 9.33856 10.4228C8.79125 9.83886 8.03026 9.33333 7.00008 9.33333V7C8.88657 7 10.2215 7.95281 11.041 8.82719C11.4515 9.26512 11.7496 9.69946 11.9458 10.0245C12.0446 10.1881 12.1195 10.3271 12.1714 10.4291C12.1973 10.4802 12.2178 10.5222 12.2326 10.5538C12.24 10.5696 12.2461 10.5828 12.2508 10.5932C12.2532 10.5984 12.2552 10.6029 12.257 10.6068C12.2578 10.6086 12.2585 10.6104 12.2592 10.6119C12.2595 10.6127 12.2599 10.6134 12.2601 10.6141C12.26 10.6139 12.2603 10.6144 12.2601 10.6141C12.2603 10.6145 12.2609 10.616 11.192 11.0833ZM7.00008 17.5C4.42275 17.5 2.33341 15.4106 2.33341 12.8333H4.66675C4.66675 14.122 5.71142 15.1667 7.00008 15.1667V17.5ZM11.6667 12.8333C11.6667 15.4106 9.57741 17.5 7.00008 17.5V15.1667C8.28875 15.1667 9.33341 14.122 9.33341 12.8333H11.6667ZM7.00008 8.16667C9.57741 8.16667 11.6667 10.256 11.6667 12.8333H9.33341C9.33341 11.5447 8.28875 10.5 7.00008 10.5V8.16667ZM2.33341 12.8333C2.33341 10.256 4.42275 8.16667 7.00008 8.16667V10.5C5.71142 10.5 4.66675 11.5447 4.66675 12.8333H2.33341Z" fill="#A7BA89"/>
</svg>
