<svg width="39" height="39" viewBox="0 0 39 39" fill="none" xmlns="http://www.w3.org/2000/svg">
<rect x="4" y="4" width="31" height="31" rx="9" fill="white"/>
<rect x="4" y="4" width="31" height="31" rx="9" stroke="white" stroke-width="8"/>
<path d="M29.4186 19.7316C29.4186 19.0474 29.3626 18.3602 29.2447 17.6875H19.6997V21.5616H25.1651C25.0523 22.1815 24.8149 22.7722 24.4673 23.2977C24.1196 23.8233 23.669 24.2728 23.1425 24.6191V27.1348H26.4042C28.319 25.381 29.4186 22.7935 29.4186 19.7316Z" fill="#4285F4"/>
<path d="M19.7013 29.5626C22.4297 29.5626 24.7311 28.6713 26.4072 27.1332L23.147 24.619C22.2399 25.2328 21.0684 25.5807 19.7042 25.5807C17.0649 25.5807 14.8267 23.8097 14.0232 21.4292H10.6594V24.021C11.507 25.6903 12.8007 27.0919 14.3969 28.0702C15.9931 29.0484 17.8292 29.565 19.7013 29.5626Z" fill="#34A853"/>
<path d="M14.0189 21.4292C13.595 20.18 13.595 18.8259 14.0189 17.5767V14.9849H10.658C9.95028 16.3858 9.58154 17.9334 9.58154 19.5029C9.58154 21.0725 9.95028 22.6201 10.658 24.021L14.0189 21.4292Z" fill="#FBBC04"/>
<path d="M19.7013 13.4192C21.1426 13.3958 22.5357 13.9376 23.5825 14.9286L26.4719 12.055C24.6356 10.3445 22.2107 9.40744 19.7013 9.43875C17.8287 9.43638 15.9921 9.95349 14.3958 10.9326C12.7995 11.9117 11.5061 13.3143 10.6594 14.9846L14.0174 17.5736C14.8167 15.1902 17.0592 13.4192 19.6984 13.4192H19.7013Z" fill="#EA4335"/>
</svg>
