<svg width="91" height="90" viewBox="0 0 91 90" fill="none" xmlns="http://www.w3.org/2000/svg">
<g clip-path="url(#clip0_676_2239)">
<path fill-rule="evenodd" clip-rule="evenodd" d="M49.25 33.75C49.25 31.6789 47.5711 30 45.5 30C43.4289 30 41.75 31.6789 41.75 33.75V41.25H34.25C32.1789 41.25 30.5 42.9289 30.5 45C30.5 47.0711 32.1789 48.75 34.25 48.75H41.75V56.25C41.75 58.3211 43.4289 60 45.5 60C47.5711 60 49.25 58.3211 49.25 56.25V48.75H56.75C58.8211 48.75 60.5 47.0711 60.5 45C60.5 42.9289 58.8211 41.25 56.75 41.25H49.25V33.75ZM8 45C8 24.2893 24.7893 7.5 45.5 7.5C66.2105 7.5 83 24.2893 83 45C83 65.7105 66.2105 82.5 45.5 82.5C24.7893 82.5 8 65.7105 8 45Z" fill="#A7BA89"/>
</g>
<defs>
<clipPath id="clip0_676_2239">
<rect width="90" height="90" fill="white" transform="translate(0.5)"/>
</clipPath>
</defs>
</svg>
