<svg width="30" height="30" viewBox="0 0 30 30" fill="none" xmlns="http://www.w3.org/2000/svg">
<path fill-rule="evenodd" clip-rule="evenodd" d="M5.25888 3.49121L26.5089 24.7412L24.7411 26.509L21.272 23.0398C19.5652 24.1941 17.4841 25.0001 15 25.0001C6.25 25.0001 2.5 15.0001 2.5 15.0001C2.5 15.0001 3.83958 11.4279 6.78561 8.55355L3.49112 5.25898L5.25888 3.49121ZM15 5.00009C23.75 5.00009 27.5 15.0001 27.5 15.0001C27.5 15.0001 26.6657 17.2249 24.8659 19.5757L19.2503 13.9587C18.8646 12.3793 17.6216 11.1361 16.0424 10.75L11.0349 5.74122C12.2215 5.27802 13.5413 5.00009 15 5.00009ZM10.625 15.0001C10.625 17.4163 12.5838 19.3751 15 19.3751C15.7534 19.3751 16.4624 19.1846 17.0814 18.8492L15.1043 16.8722C15.0698 16.8741 15.035 16.8751 15 16.8751C13.9645 16.8751 13.125 16.0356 13.125 15.0001C13.125 14.9651 13.126 14.9303 13.1279 14.8957L11.1509 12.9187C10.8155 13.5377 10.625 14.2466 10.625 15.0001Z" fill="#A7BA89"/>
</svg>
