<svg width="12" height="23" viewBox="0 0 12 23" fill="none" xmlns="http://www.w3.org/2000/svg">
<path d="M6.75907 5.47653C6.75907 5.71238 6.75907 6.4811 6.75907 7.57322H10.514L10.1069 10.9205H6.75907C6.75907 16.0825 6.75907 23 6.75907 23H2.31544C2.31544 23 2.31544 16.1741 2.31544 10.9205H0V7.57322H2.31544C2.31544 6.24579 2.31544 5.30189 2.31544 5.03908C2.31544 3.7869 2.2211 3.19278 2.75316 2.22245C3.28549 1.25218 4.78701 -0.0303296 7.38403 0.000547086C9.98168 0.032549 11.0766 0.282443 11.0766 0.282443L10.514 3.84978C10.514 3.84978 8.85522 3.41179 8.04104 3.56789C7.22794 3.72403 6.75907 4.2249 6.75907 5.47653Z" fill="white"/>
</svg>
