<svg width="29" height="24" viewBox="0 0 29 24" fill="none" xmlns="http://www.w3.org/2000/svg">
<path d="M1.50022 5.83323L9.37219 11.0812C11.2254 12.3167 12.1521 12.9344 13.1535 13.1745C14.0387 13.3865 14.9613 13.3865 15.8465 13.1745C16.8479 12.9344 17.7746 12.3167 19.6278 11.0812L27.4998 5.83323M6.12236 21.7219H22.8776C24.4955 21.7219 25.3046 21.7219 25.9225 21.407C26.466 21.1301 26.908 20.6881 27.1849 20.1446C27.4998 19.5266 27.4998 18.7176 27.4998 17.0997V6.12212C27.4998 4.50422 27.4998 3.69526 27.1849 3.07731C26.908 2.53373 26.466 2.0918 25.9225 1.81484C25.3046 1.49997 24.4955 1.49997 22.8776 1.49997H6.12236C4.50447 1.49997 3.69551 1.49997 3.07755 1.81484C2.53398 2.0918 2.09204 2.53373 1.81509 3.07731C1.50022 3.69526 1.50022 4.50421 1.50022 6.12212V17.0997C1.50022 18.7176 1.50022 19.5266 1.81509 20.1446C2.09204 20.6881 2.53398 21.1301 3.07755 21.407C3.69551 21.7219 4.50445 21.7219 6.12236 21.7219Z" stroke="#A7BA89" stroke-width="3" stroke-linecap="round" stroke-linejoin="round"/>
</svg>
