<svg width="36" height="36" viewBox="0 0 36 36" fill="none" xmlns="http://www.w3.org/2000/svg">
<g id="&#229;&#138;&#159;&#232;&#131;&#189;&#230;&#184;&#133;&#229;&#150;&#174;">
<path id="Vector" d="M17.9048 1.59375C9.06823 1.59375 1.90479 8.75719 1.90479 17.5938C1.90479 26.4302 9.06823 33.5938 17.9048 33.5938C26.7413 33.5938 33.9048 26.4302 33.9048 17.5938C33.9048 8.75719 26.7413 1.59375 17.9048 1.59375Z" stroke="#C5C5C5" stroke-width="3" stroke-linecap="round" stroke-linejoin="round"/>
<path id="Vector_2" d="M5.53851 27.7465C5.53851 27.7465 9.10495 23.1934 17.9049 23.1934C26.7049 23.1934 30.2715 27.7465 30.2715 27.7465" stroke="#C5C5C5" stroke-width="3" stroke-linecap="round" stroke-linejoin="round"/>
<path id="Vector_3" d="M17.9047 17.5937C20.5557 17.5937 22.7047 15.4447 22.7047 12.7937C22.7047 10.1427 20.5557 7.99365 17.9047 7.99365C15.2536 7.99365 13.1047 10.1427 13.1047 12.7937C13.1047 15.4447 15.2536 17.5937 17.9047 17.5937Z" stroke="#C5C5C5" stroke-width="3" stroke-linecap="round" stroke-linejoin="round"/>
</g>
</svg>
