<svg width="36" height="37" viewBox="0 0 36 37" fill="none" xmlns="http://www.w3.org/2000/svg">
<g id="Group">
<path id="Vector" d="M1.90475 5.88807V33.9643C1.90475 34.7562 2.86221 35.1528 3.42218 34.5928L10.273 27.7421C10.6063 27.4088 11.0585 27.2214 11.53 27.2214H30.3492C32.3129 27.2214 33.9048 25.6296 33.9048 23.6659V5.88807C33.9048 3.92439 32.3129 2.33252 30.3492 2.33252H5.46031C3.49663 2.33252 1.90475 3.92439 1.90475 5.88807Z" stroke="#C5C5C5" stroke-width="3" stroke-linecap="round" stroke-linejoin="round"/>
<path id="Vector_2" d="M23.2379 18.3323C21.8165 19.4388 19.9493 20.1101 17.9045 20.1101C15.8597 20.1101 13.9926 19.4388 12.5712 18.3323" stroke="#C5C5C5" stroke-width="3" stroke-linecap="round" stroke-linejoin="round"/>
<path id="Vector_3" d="M12.5712 11.2561V11.2212" stroke="#C5C5C5" stroke-width="3" stroke-linecap="round" stroke-linejoin="round"/>
<path id="Vector_4" d="M23.2381 11.2561V11.2212" stroke="#C5C5C5" stroke-width="3" stroke-linecap="round" stroke-linejoin="round"/>
</g>
</svg>
